<svg xmlns="http://www.w3.org/2000/svg" viewBox="0 0 48 48" id="employee-detail"><path fill="#50b748" fill-rule="evenodd" d="M48 23.977C48 37.248 37.248 48 23.977 48 10.752 48 0 37.248 0 23.977 0 10.752 10.752 0 23.977 0 37.248 0 48 10.752 48 23.977z" clip-rule="evenodd"></path><path fill="#fff" d="M34.5 34h-21a2.503 2.503 0 0 1-2.5-2.5v-15c0-1.379 1.122-2.5 2.5-2.5h8a.5.5 0 0 1 .485.379L22.891 18H36.5a.5.5 0 0 1 .5.5v13c0 1.379-1.122 2.5-2.5 2.5zm-21-19c-.827 0-1.5.673-1.5 1.5v15c0 .827.673 1.5 1.5 1.5h21c.827 0 1.5-.673 1.5-1.5V19H22.5a.5.5 0 0 1-.485-.379L21.109 15H13.5z"></path><path fill="#fff" d="M34 19H20a.5.5 0 0 1-.485-.379l-1-4a.5.5 0 1 1 .97-.242L20.391 18H34a.5.5 0 0 1 0 1z"></path><path fill="#fff" d="M36.5 19h-9a.5.5 0 0 1 0-1H36v-.5c0-.827-.673-1.5-1.5-1.5H22a.5.5 0 0 1 0-1h12.5c1.378 0 2.5 1.121 2.5 2.5v1a.5.5 0 0 1-.5.5zM33.5 31h-6a.5.5 0 0 1 0-1h6a.5.5 0 0 1 0 1zM33.5 29h-3a.5.5 0 0 1 0-1h3a.5.5 0 0 1 0 1zM18.491 26.666a2.317 2.317 0 0 1-2.314-2.314v-1.465h1v1.465c0 .725.59 1.314 1.314 1.314s1.314-.59 1.314-1.314v-1.465h1v1.465a2.317 2.317 0 0 1-2.314 2.314z"></path><path fill="#fff" d="M20.396 23.387h-3.818a.499.499 0 0 1-.444-.271l-.327-.633a.465.465 0 0 1-.044-.125 1.207 1.207 0 0 1 .742-1.38 1.355 1.355 0 0 1 1.523-.947l2.068.345c.366.061.686.262.899.565.214.304.295.673.229 1.039l-.355 1.065a.5.5 0 0 1-.473.342zm-3.514-1h3.155l.222-.654a.471.471 0 0 0-.081-.215.372.372 0 0 0-.246-.154l-2.068-.345a.363.363 0 0 0-.292.081.355.355 0 0 0-.127.273.53.53 0 0 1-.146.365c-.155.155-.458.162-.517.236a.201.201 0 0 0-.047.127l.147.286zM14.5 31a.5.5 0 0 1-.5-.5v-1.356c0-.81.509-1.543 1.267-1.827l1.636-.613v-.907a.5.5 0 0 1 .801-.399 1.3 1.3 0 0 0 1.575-.001.5.5 0 0 1 .801.398v.909l1.637.614c.107.039.212.09.311.147a.5.5 0 0 1-.506.864.994.994 0 0 0-.154-.074l-1.963-.736a.5.5 0 0 1-.324-.468v-.462a2.28 2.28 0 0 1-1.177.001v.461a.5.5 0 0 1-.324.468l-1.961.735a.953.953 0 0 0-.619.89V30.5a.5.5 0 0 1-.5.5z"></path><path fill="#fff" d="M22.5 31a.5.5 0 0 1-.5-.5v-1.356a.954.954 0 0 0-.617-.89l-1.961-.736a.5.5 0 0 1-.324-.468v-.461a2.26 2.26 0 0 1-1.177-.001v.462a.5.5 0 0 1-.324.468l-1.961.735a.98.98 0 0 0-.156.075.5.5 0 0 1-.506-.864 1.87 1.87 0 0 1 .313-.148l1.634-.613v-.909a.499.499 0 0 1 .801-.398 1.3 1.3 0 0 0 1.575.001.502.502 0 0 1 .801.399v.907l1.637.614A1.96 1.96 0 0 1 23 29.144V30.5a.5.5 0 0 1-.5.5z"></path><path fill="#fff" d="M18.492 29.001c-.99 0-1.921-.484-2.49-1.296a.5.5 0 1 1 .82-.574 2.04 2.04 0 0 0 3.34.002.5.5 0 1 1 .818.574 3.042 3.042 0 0 1-2.488 1.294z"></path></svg>